<?xml version="1.0" encoding="UTF-8"?>
<svg width="512" height="512" fill="none" viewBox="0 0 512 512" xmlns="http://www.w3.org/2000/svg">
 <path d="m418.86 100.76c0.24 0.794 0.041 1.655-0.522 2.264l-40.054 43.272 51.374 86.241 34.543 149.3-81.504 130.17h-254.19l-81.504-130.17 34.543-149.3 50.646-86.241-39.332-43.262c-0.5591-0.614-0.7495-1.48-0.5001-2.273l29.306-93.146c0.596-1.8953 3.136-2.2289 4.201-0.55188l46.522 73.218 166.75 0.5842 46.537-76.397c1.051-1.7252 3.648-1.3942 4.233 0.53943l28.948 95.752zm-371.86 281.07 81.504 130.17h104.81l-175.9-175.26-10.412 45.089zm10.412-45.089 175.9 175.26h22.2v-44.983l-77.753-141.96-96.214-92.523-24.131 104.21zm275.8-11.684-77.698 141.96v44.983h22.199l175.89-175.98-23.943-103.48-96.447 92.523zm-55.499 186.94h104.98l81.504-130.17-10.6-45.812-175.89 175.98zm-22.199-44.983 77.698-141.96h-155.45l77.753 141.96zm-48.543-386.62-29.21 244.66h155.45l-29.081-244.32-97.16-0.3404zm-125.42 152.13 96.214 92.523 29.21-244.66-34.582-0.1212-40.196 66.015-50.646 86.241zm251.66 92.523 96.447-92.523-51.374-86.241-39.142-65.431-35.012-0.1226 29.081 244.32zm-240.85-224.3c-0.2494 0.793-0.059 1.659 0.5001 2.273l39.332 43.262 40.196-66.015-46.522-73.218c-1.065-1.677-3.605-1.3435-4.201 0.55188l-29.306 93.146zm246.78-19.896 39.142 65.431 40.054-43.272c0.563-0.609 0.762-1.47 0.522-2.264l-28.948-95.752c-0.585-1.9337-3.182-2.2647-4.233-0.53943l-46.537 76.397z" clip-rule="evenodd" fill="#151515" fill-rule="evenodd"/>
 <path d="m277.71 512h104.98l81.504-130.17-10.6-45.812-175.89 175.98z" fill="url(#paint0_linear_368_172)"/>
 <path d="M47 381.829L128.504 512H233.31L57.4117 336.74L47 381.829Z" fill="url(#paint0_linear_368_172)"/>
 <path d="m57.412 336.74 175.9 175.26h22.2v-44.983l-77.753-141.96-96.214-92.523-24.131 104.21z" fill="url(#paint2_linear_368_172)"/>
 <path d="m333.21 325.06-77.698 141.96v44.983h22.199l175.89-175.98-23.943-103.48-96.447 92.523z" fill="url(#paint2_linear_368_172)"/>
 <path d="m81.543 232.53 96.214 92.523 29.21-244.66-34.582-0.1212-40.196 66.015-50.646 86.241z" fill="url(#paint4_linear_368_172)"/>
 <path d="m333.21 325.06 96.447-92.523-51.374-86.241-39.142-65.431-35.012-0.1226 29.081 244.32z" fill="url(#paint4_linear_368_172)"/>
 <path d="m206.97 80.398-29.21 244.66h155.45l-29.081-244.32-97.16-0.3404z" fill="#F77C1C"/>
 <path d="m339.14 80.861 39.142 65.431 40.054-43.272c0.563-0.609 0.762-1.47 0.522-2.264l-28.948-95.752c-0.585-1.9337-3.182-2.2647-4.233-0.53943l-46.537 76.397z" fill="#F44E23"/>
 <path d="m92.356 100.76c-0.2494 0.793-0.059 1.659 0.5001 2.273l39.332 43.262 40.196-66.015-46.522-73.218c-1.065-1.677-3.605-1.3435-4.201 0.55188l-29.306 93.146z" fill="#F44E23"/>
 <path d="m255.51 467.02 77.698-141.96h-155.45l77.753 141.96z" fill="url(#paint6_linear_368_172)"/>
 <path d="m289.02 200.62c3.084 0 4.665 3.695 2.536 5.925l-35.317 36.987c-0.064 0.067-0.131 0.13-0.199 0.191v46.503l41.174 34.828h-87.021l41.174-34.828v-46.503c-0.068-0.061-0.135-0.124-0.199-0.191l-35.316-36.987c-2.129-2.23-0.549-5.925 2.535-5.925h70.633z" fill="#151515"/>
 <defs>
  <linearGradient id="paint0_linear_368_172" x1="255.6" x2="255.6" y2="512" gradientUnits="userSpaceOnUse">
   <stop stop-color="#712E87" offset=".1"/>
   <stop stop-color="#852A78" offset=".9"/>
  </linearGradient>
  <linearGradient id="paint2_linear_368_172" x1="255.6" x2="255.6" y2="512" gradientUnits="userSpaceOnUse">
   <stop stop-color="#E93F36" offset=".1"/>
   <stop stop-color="#B13470" offset=".9"/>
  </linearGradient>
  <linearGradient id="paint4_linear_368_172" x1="255.6" x2="255.6" y2="512" gradientUnits="userSpaceOnUse">
   <stop stop-color="#F77C1C" offset=".15"/>
   <stop stop-color="#F05530" offset=".64904"/>
  </linearGradient>
  <linearGradient id="paint6_linear_368_172" x1="255.6" x2="255.6" y2="512" gradientUnits="userSpaceOnUse">
   <stop stop-color="#BD2A50" offset=".30288"/>
   <stop stop-color="#9C2D6F" offset=".70192"/>
  </linearGradient>
 </defs>
</svg>
