<?xml version="1.0" encoding="UTF-8"?>
<svg width="512" height="512" fill="none" viewBox="0 0 512 512" xmlns="http://www.w3.org/2000/svg">
 <rect width="512" height="512" fill="#151515"/>
 <path d="m380.7 137.14c0.184 0.608 0.032 1.268-0.4 1.733l-30.666 33.13 39.333 66.029 26.447 114.3-62.401 99.662h-194.62l-62.401-99.662 26.447-114.3 38.776-66.029-30.114-33.121c-0.428-0.471-0.574-1.134-0.383-1.741l22.437-71.315c0.457-1.4511 2.401-1.7065 3.217-0.4225l35.618 56.057 127.67 0.447 35.63-58.491c0.804-1.3209 2.793-1.0675 3.24 0.413l22.164 73.31zm-284.7 215.2 62.401 99.662h80.243l-134.67-134.18-7.971 34.521zm7.971-34.521 134.67 134.18h16.996v-34.44l-59.529-108.69-73.664-70.838-18.476 79.784zm211.16-8.946-59.488 108.69v34.44h16.997l134.66-134.74-18.332-79.23-73.842 70.838zm-42.491 143.13h80.379l62.401-99.662-8.115-35.075-134.66 134.74zm-16.997-34.44 59.488-108.69h-119.02l59.529 108.69zm-37.166-296-22.363 187.32h119.02l-22.265-187.06-74.389-0.261zm-96.027 116.48 73.664 70.838 22.363-187.32-26.476-0.093-30.775 50.542-38.776 66.029zm192.68 70.838 73.842-70.838-39.333-66.029-29.968-50.095-26.806-0.093 22.265 187.06zm-184.4-171.73c-0.191 0.607-0.045 1.27 0.383 1.741l30.114 33.121 30.775-50.542-35.618-56.057c-0.816-1.284-2.76-1.0286-3.217 0.4225l-22.437 71.315zm188.94-15.233 29.968 50.095 30.666-33.13c0.432-0.465 0.584-1.125 0.4-1.733l-22.164-73.31c-0.447-1.4805-2.436-1.7339-3.24-0.413l-35.63 58.491z" clip-rule="evenodd" fill="#151515" fill-rule="evenodd"/>
 <path d="m272.64 452h80.379l62.401-99.662-8.115-35.075-134.66 134.74z" fill="url(#paint0_linear_366_150)"/>
 <path d="M96 352.338L158.401 452H238.644L103.971 317.817L96 352.338Z" fill="url(#paint0_linear_366_150)"/>
 <path d="m103.97 317.82 134.67 134.18h16.996v-34.44l-59.529-108.69-73.664-70.838-18.476 79.784z" fill="url(#paint2_linear_366_150)"/>
 <path d="m315.13 308.87-59.488 108.69v34.44h16.997l134.66-134.74-18.332-79.23-73.842 70.838z" fill="url(#paint2_linear_366_150)"/>
 <path d="m122.45 238.03 73.664 70.838 22.363-187.32-26.476-0.093-30.775 50.542-38.776 66.029z" fill="url(#paint4_linear_366_150)"/>
 <path d="m315.13 308.87 73.842-70.838-39.333-66.029-29.968-50.095-26.806-0.093 22.265 187.06z" fill="url(#paint4_linear_366_150)"/>
 <path d="m218.47 121.56-22.363 187.32h119.02l-22.265-187.06-74.389-0.261z" fill="#F77C1C"/>
 <path d="m319.67 121.91 29.968 50.095 30.666-33.13c0.432-0.465 0.584-1.125 0.4-1.733l-22.164-73.31c-0.447-1.4805-2.436-1.7339-3.24-0.413l-35.63 58.491z" fill="#F44E23"/>
 <path d="m130.73 137.14c-0.191 0.607-0.045 1.27 0.383 1.741l30.114 33.121 30.775-50.542-35.618-56.057c-0.816-1.284-2.76-1.0286-3.217 0.4225l-22.437 71.315z" fill="#F44E23"/>
 <path d="m255.64 417.56 59.488-108.69h-119.02l59.529 108.69z" fill="url(#paint6_linear_366_150)"/>
 <path d="m281.3 213.6c2.361 0 3.572 2.829 1.941 4.537l-27.039 28.318c-0.049 0.051-0.1 0.1-0.152 0.146v35.604l31.524 26.665h-66.626l31.524-26.665v-35.604c-0.052-0.046-0.103-0.095-0.152-0.146l-27.039-28.318c-1.631-1.708-0.42-4.537 1.941-4.537h54.078z" fill="#151515"/>
 <defs>
  <linearGradient id="paint0_linear_366_150" x1="255.71" x2="255.71" y1="60" y2="452" gradientUnits="userSpaceOnUse">
   <stop stop-color="#712E87" offset=".1"/>
   <stop stop-color="#852A78" offset=".9"/>
  </linearGradient>
  <linearGradient id="paint2_linear_366_150" x1="255.71" x2="255.71" y1="60" y2="452" gradientUnits="userSpaceOnUse">
   <stop stop-color="#E93F36" offset=".1"/>
   <stop stop-color="#B13470" offset=".9"/>
  </linearGradient>
  <linearGradient id="paint4_linear_366_150" x1="255.71" x2="255.71" y1="60" y2="452" gradientUnits="userSpaceOnUse">
   <stop stop-color="#F77C1C" offset=".15"/>
   <stop stop-color="#F05530" offset=".64904"/>
  </linearGradient>
  <linearGradient id="paint6_linear_366_150" x1="255.71" x2="255.71" y1="60" y2="452" gradientUnits="userSpaceOnUse">
   <stop stop-color="#BD2A50" offset=".30288"/>
   <stop stop-color="#9C2D6F" offset=".70192"/>
  </linearGradient>
 </defs>
</svg>
