<svg width="512" height="512" viewBox="0 0 512 512" fill="none" xmlns="http://www.w3.org/2000/svg">
<path fill-rule="evenodd" clip-rule="evenodd" d="M418.857 100.756C419.097 101.55 418.898 102.411 418.335 103.02L378.281 146.292L429.655 232.533L464.198 381.829L382.694 512H128.504L47 381.829L81.543 232.533L132.189 146.292L92.8565 103.03C92.2974 102.416 92.107 101.55 92.3564 100.757L121.662 7.61109C122.258 5.71575 124.798 5.38217 125.863 7.05921L172.385 80.2771L339.139 80.8613L385.676 4.46466C386.727 2.73943 389.324 3.07041 389.909 5.00409L418.857 100.756ZM47 381.829L128.504 512H233.31L57.4117 336.74L47 381.829ZM57.4117 336.74L233.31 512H255.51V467.017L177.757 325.056L81.543 232.533L57.4117 336.74ZM333.208 325.056L255.51 467.017V512H277.709L453.598 336.017L429.655 232.533L333.208 325.056ZM277.709 512H382.694L464.198 381.829L453.598 336.017L277.709 512ZM255.51 467.017L333.208 325.056H177.757L255.51 467.017ZM206.967 80.3983L177.757 325.056H333.208L304.127 80.7387L206.967 80.3983ZM81.543 232.533L177.757 325.056L206.967 80.3983L172.385 80.2771L132.189 146.292L81.543 232.533ZM333.208 325.056L429.655 232.533L378.281 146.292L339.139 80.8613L304.127 80.7387L333.208 325.056ZM92.3564 100.757C92.107 101.55 92.2974 102.416 92.8565 103.03L132.189 146.292L172.385 80.2771L125.863 7.05921C124.798 5.38217 122.258 5.71575 121.662 7.61109L92.3564 100.757ZM339.139 80.8613L378.281 146.292L418.335 103.02C418.898 102.411 419.097 101.55 418.857 100.756L389.909 5.00409C389.324 3.07041 386.727 2.73943 385.676 4.46466L339.139 80.8613Z" fill="#151515"/>
<path d="M277.709 512H382.694L464.198 381.829L453.598 336.017L277.709 512Z" fill="url(#paint0_linear_368_172)"/>
<path d="M47 381.829L128.504 512H233.31L57.4117 336.74L47 381.829Z" fill="url(#paint1_linear_368_172)"/>
<path d="M57.4117 336.74L233.31 512H255.51V467.017L177.757 325.056L81.543 232.533L57.4117 336.74Z" fill="url(#paint2_linear_368_172)"/>
<path d="M333.208 325.056L255.51 467.017V512H277.709L453.598 336.017L429.655 232.533L333.208 325.056Z" fill="url(#paint3_linear_368_172)"/>
<path d="M81.543 232.533L177.757 325.056L206.967 80.3983L172.385 80.2771L132.189 146.292L81.543 232.533Z" fill="url(#paint4_linear_368_172)"/>
<path d="M333.208 325.056L429.655 232.533L378.281 146.292L339.139 80.8613L304.127 80.7387L333.208 325.056Z" fill="url(#paint5_linear_368_172)"/>
<path d="M206.967 80.3983L177.757 325.056H333.208L304.127 80.7387L206.967 80.3983Z" fill="#F77C1C"/>
<path d="M339.139 80.8613L378.281 146.292L418.335 103.02C418.898 102.411 419.097 101.55 418.857 100.756L389.909 5.00409C389.324 3.07041 386.727 2.73943 385.676 4.46466L339.139 80.8613Z" fill="#F44E23"/>
<path d="M92.3564 100.757C92.107 101.55 92.2974 102.416 92.8565 103.03L132.189 146.292L172.385 80.2771L125.863 7.05921C124.798 5.38217 122.258 5.71575 121.662 7.61109L92.3564 100.757Z" fill="#F44E23"/>
<path d="M255.51 467.017L333.208 325.056H177.757L255.51 467.017Z" fill="url(#paint6_linear_368_172)"/>
<path d="M289.018 200.622C292.102 200.622 293.683 204.317 291.554 206.547L256.237 243.534C256.173 243.601 256.106 243.664 256.038 243.725V290.228L297.212 325.056H210.191L251.365 290.228V243.725C251.297 243.664 251.23 243.601 251.166 243.534L215.85 206.547C213.721 204.317 215.301 200.622 218.385 200.622H289.018Z" fill="#151515"/>
<defs>
<linearGradient id="paint0_linear_368_172" x1="255.599" y1="0" x2="255.599" y2="512" gradientUnits="userSpaceOnUse">
<stop offset="0.1" stop-color="#712E87"/>
<stop offset="0.9" stop-color="#852A78"/>
</linearGradient>
<linearGradient id="paint1_linear_368_172" x1="255.599" y1="0" x2="255.599" y2="512" gradientUnits="userSpaceOnUse">
<stop offset="0.1" stop-color="#712E87"/>
<stop offset="0.9" stop-color="#852A78"/>
</linearGradient>
<linearGradient id="paint2_linear_368_172" x1="255.599" y1="0" x2="255.599" y2="512" gradientUnits="userSpaceOnUse">
<stop offset="0.1" stop-color="#E93F36"/>
<stop offset="0.9" stop-color="#B13470"/>
</linearGradient>
<linearGradient id="paint3_linear_368_172" x1="255.599" y1="0" x2="255.599" y2="512" gradientUnits="userSpaceOnUse">
<stop offset="0.1" stop-color="#E93F36"/>
<stop offset="0.9" stop-color="#B13470"/>
</linearGradient>
<linearGradient id="paint4_linear_368_172" x1="255.599" y1="0" x2="255.599" y2="512" gradientUnits="userSpaceOnUse">
<stop offset="0.15" stop-color="#F77C1C"/>
<stop offset="0.649038" stop-color="#F05530"/>
</linearGradient>
<linearGradient id="paint5_linear_368_172" x1="255.599" y1="0" x2="255.599" y2="512" gradientUnits="userSpaceOnUse">
<stop offset="0.15" stop-color="#F77C1C"/>
<stop offset="0.649038" stop-color="#F05530"/>
</linearGradient>
<linearGradient id="paint6_linear_368_172" x1="255.599" y1="0" x2="255.599" y2="512" gradientUnits="userSpaceOnUse">
<stop offset="0.302885" stop-color="#BD2A50"/>
<stop offset="0.701923" stop-color="#9C2D6F"/>
</linearGradient>
</defs>
</svg>
