<?xml version="1.0" encoding="UTF-8"?>
<svg width="256" height="256" fill="none" viewBox="0 0 256 256" xmlns="http://www.w3.org/2000/svg">
 <circle cx="66.064" cy="105.2" r="25.337" fill="url(#paint0_linear_142_11)" stroke="url(#paint0_linear_142_11)" stroke-width="5.6305"/>
 <path d="m66.064 142.36c13.993 0 25.337 11.344 25.337 25.337v50.675c-1e-4 1.554-1.2599 2.815-2.8145 2.815h-45.044c-1.5548 0-2.8154-1.261-2.8154-2.815v-50.675c0-13.993 11.344-25.337 25.337-25.337z" fill="url(#paint2_linear_142_11)" stroke="url(#paint2_linear_142_11)" stroke-width="5.6305"/>
 <circle cx="128" cy="81.548" r="25.337" fill="url(#paint4_linear_142_11)" stroke="url(#paint4_linear_142_11)" stroke-width="5.6305"/>
 <path d="m128 119.84c13.993 0 25.337 11.344 25.337 25.337v73.196c0 1.555-1.26 2.815-2.815 2.816h-45.044c-1.554 0-2.815-1.261-2.815-2.816v-73.196c0-13.993 11.344-25.337 25.337-25.337z" fill="url(#paint6_linear_142_11)" stroke="url(#paint6_linear_142_11)" stroke-width="5.6305"/>
 <circle cx="189.94" cy="60.152" r="25.337" fill="url(#paint8_linear_142_11)" stroke="url(#paint8_linear_142_11)" stroke-width="5.6305"/>
 <path d="m189.94 97.314c13.994 0 25.337 11.344 25.337 25.337v95.719c0 1.554-1.26 2.815-2.814 2.815h-45.044c-1.555 0-2.816-1.261-2.816-2.815v-95.719c0-13.993 11.344-25.337 25.337-25.337z" fill="url(#paint10_linear_142_11)" stroke="url(#paint10_linear_142_11)" stroke-width="5.6305"/>
 <defs>
  <linearGradient id="paint0_linear_142_11" x1="66.064" x2="66.064" y1="77.044" y2="133.35" gradientUnits="userSpaceOnUse">
   <stop stop-color="#ED6EA0" offset=".1"/>
   <stop stop-color="#EC8C69" offset=".9"/>
  </linearGradient>
  <linearGradient id="paint2_linear_142_11" x1="66.064" x2="66.064" y1="139.54" y2="224" gradientUnits="userSpaceOnUse">
   <stop stop-color="#ED6EA0" offset=".1"/>
   <stop stop-color="#EC8C69" offset=".9"/>
  </linearGradient>
  <linearGradient id="paint4_linear_142_11" x1="128" x2="128" y1="53.396" y2="109.7" gradientUnits="userSpaceOnUse">
   <stop stop-color="#ED6EA0" offset=".1"/>
   <stop stop-color="#EC8C69" offset=".9"/>
  </linearGradient>
  <linearGradient id="paint6_linear_142_11" x1="128" x2="128" y1="117.02" y2="224" gradientUnits="userSpaceOnUse">
   <stop stop-color="#ED6EA0" offset=".1"/>
   <stop stop-color="#EC8C69" offset=".9"/>
  </linearGradient>
  <linearGradient id="paint8_linear_142_11" x1="189.94" x2="189.94" y1="32" y2="88.305" gradientUnits="userSpaceOnUse">
   <stop stop-color="#ED6EA0" offset=".1"/>
   <stop stop-color="#EC8C69" offset=".9"/>
  </linearGradient>
  <linearGradient id="paint10_linear_142_11" x1="189.94" x2="189.94" y1="94.498" y2="224" gradientUnits="userSpaceOnUse">
   <stop stop-color="#ED6EA0" offset=".1"/>
   <stop stop-color="#EC8C69" offset=".9"/>
  </linearGradient>
 </defs>
</svg>
