<?xml version="1.0" encoding="UTF-8"?>
<svg width="512" height="512" fill="none" viewBox="0 0 512 512" xmlns="http://www.w3.org/2000/svg">
 <g clip-path="url(#clip0_464_25)">
  <path d="m552.81 100.77c0.236 0.786 0.04 1.639-0.516 2.243l-39.84 43.28 51.09 86.241 34.352 149.3-81.053 130.17h-252.79l-81.053-130.17 34.352-149.3 50.366-86.241-39.122-43.27c-0.552-0.61-0.74-1.467-0.494-2.252l29.147-93.157c0.591-1.8901 3.124-2.2216 4.182-0.54743l46.261 73.212 165.83 0.5842 46.276-76.391c1.043-1.722 3.633-1.3931 4.213 0.53497l28.792 95.763zm-369.81 281.06 81.053 130.17h104.23l-174.93-175.26-10.354 45.089zm10.354-45.089 174.93 175.26h22.077v-44.983l-77.324-141.96-95.682-92.523-23.998 104.21zm274.27-11.684-77.269 141.96v44.983h22.077l174.92-175.98-23.811-103.48-95.913 92.523zm-55.192 186.94h104.4l81.053-130.17-10.541-45.812-174.92 175.98zm-22.077-44.983 77.269-141.96h-154.59l77.324 141.96zm-48.275-386.62-29.049 244.66h154.59l-28.921-244.32-96.623-0.3404zm-124.73 152.13 95.682 92.523 29.049-244.66-34.391-0.1212-39.974 66.015-50.366 86.241zm250.28 92.523 95.913-92.523-51.09-86.241-38.925-65.431-34.819-0.1226 28.921 244.32zm-239.52-224.29c-0.246 0.785-0.058 1.642 0.494 2.252l39.122 43.27 39.974-66.015-46.261-73.212c-1.058-1.6742-3.591-1.3426-4.182 0.54743l-29.147 93.157zm245.42-19.909 38.925 65.431 39.84-43.28c0.556-0.604 0.752-1.457 0.516-2.243l-28.792-95.763c-0.58-1.9281-3.17-2.257-4.213-0.53497l-46.276 76.391z" clip-rule="evenodd" fill="#151515" fill-rule="evenodd"/>
  <path d="m412.44 512h104.4l81.053-130.17-10.541-45.812-174.92 175.98z" fill="url(#paint0_linear_464_25)"/>
  <path d="M183 381.829L264.053 512H368.281L193.354 336.74L183 381.829Z" fill="url(#paint0_linear_464_25)"/>
  <path d="m193.35 336.74 174.93 175.26h22.077v-44.983l-77.324-141.96-95.682-92.523-23.998 104.21z" fill="url(#paint2_linear_464_25)"/>
  <path d="m467.63 325.06-77.269 141.96v44.983h22.077l174.92-175.98-23.811-103.48-95.913 92.523z" fill="url(#paint2_linear_464_25)"/>
  <path d="m217.35 232.53 95.682 92.523 29.049-244.66-34.391-0.1212-39.974 66.015-50.366 86.241z" fill="url(#paint4_linear_464_25)"/>
  <path d="m467.63 325.06 95.913-92.523-51.09-86.241-38.925-65.431-34.819-0.1226 28.921 244.32z" fill="url(#paint4_linear_464_25)"/>
  <path d="m342.08 80.398-29.049 244.66h154.59l-28.921-244.32-96.623-0.3404z" fill="#F77C1C"/>
  <path d="m473.52 80.861 38.925 65.431 39.84-43.28c0.556-0.604 0.752-1.457 0.516-2.243l-28.792-95.763c-0.58-1.9281-3.17-2.257-4.213-0.53497l-46.276 76.391z" fill="#F44E23"/>
  <path d="m228.1 100.77c-0.246 0.785-0.058 1.642 0.494 2.252l39.122 43.27 39.974-66.015-46.261-73.212c-1.058-1.6742-3.591-1.3426-4.182 0.54743l-29.147 93.157z" fill="#F44E23"/>
  <path d="m390.36 467.02 77.269-141.96h-154.59l77.324 141.96z" fill="url(#paint6_linear_464_25)"/>
  <path d="m423.68 200.62c3.067 0 4.639 3.695 2.521 5.926l-35.121 36.987c-0.064 0.067-0.13 0.13-0.198 0.19v46.503l40.946 34.829h-86.539l40.945-34.829v-46.503c-0.067-0.06-0.133-0.123-0.197-0.19l-35.121-36.987c-2.118-2.231-0.546-5.926 2.521-5.926h70.243z" fill="#151515"/>
 </g>
 <defs>
  <linearGradient id="paint0_linear_464_25" x1="390.45" x2="390.45" y2="512" gradientUnits="userSpaceOnUse">
   <stop stop-color="#712E87" offset=".1"/>
   <stop stop-color="#852A78" offset=".9"/>
  </linearGradient>
  <linearGradient id="paint2_linear_464_25" x1="390.45" x2="390.45" y2="512" gradientUnits="userSpaceOnUse">
   <stop stop-color="#E93F36" offset=".1"/>
   <stop stop-color="#B13470" offset=".9"/>
  </linearGradient>
  <linearGradient id="paint4_linear_464_25" x1="390.45" x2="390.45" y2="512" gradientUnits="userSpaceOnUse">
   <stop stop-color="#F77C1C" offset=".15"/>
   <stop stop-color="#F05530" offset=".64904"/>
  </linearGradient>
  <linearGradient id="paint6_linear_464_25" x1="390.45" x2="390.45" y2="512" gradientUnits="userSpaceOnUse">
   <stop stop-color="#BD2A50" offset=".30288"/>
   <stop stop-color="#9C2D6F" offset=".70192"/>
  </linearGradient>
  <clipPath id="clip0_464_25">
   <rect width="512" height="512" fill="#fff"/>
  </clipPath>
 </defs>
</svg>
